<?xml version="1.0" encoding="UTF-8"?>
<svg version="1.1" xmlns="http://www.w3.org/2000/svg" width="512" height="512">
<path d="M0 0 C12.50239736 6.90161241 21.17698936 17.27981543 25.83203125 30.76171875 C26.83038029 35.03715969 27.04528677 38.93282029 27.015625 43.3046875 C27.01369141 44.49010132 27.01369141 44.49010132 27.01171875 45.69946289 C26.92460117 51.00437916 26.26206634 55.64996649 24.359375 60.64453125 C23.53577739 62.63656087 23.53577739 62.63656087 23.703125 65.4921875 C25.94832336 67.30637715 25.94832336 67.30637715 28.890625 69.0546875 C39.73406438 76.0418333 49.42107873 83.9198238 58.7890625 92.765625 C61.02717606 94.85973126 63.28444895 96.84956269 65.640625 98.8046875 C87.86639055 118.18219318 109.27245805 146.61211153 119.3293457 174.50317383 C122.30241169 182.84425941 122.30241169 182.84425941 129.203125 188.1796875 C131.03266138 188.95948989 132.86571238 189.73112902 134.703125 190.4921875 C142.73708932 195.59904854 148.16740118 204.45430948 150.703125 213.4921875 C152.90902925 226.1139404 151.0578225 237.43147336 143.73046875 248.04296875 C139.15035154 253.57617393 133.80772474 257.85266448 126.703125 259.4921875 C126.703125 260.8121875 126.703125 262.1321875 126.703125 263.4921875 C127.610625 263.5334375 128.518125 263.5746875 129.453125 263.6171875 C140.09546276 265.18984065 150.13526807 272.350617 156.44921875 280.83984375 C164.22716575 293.07895736 166.96382121 305.07203505 164.421875 319.3203125 C161.65072626 331.54951239 154.85622186 341.13805248 144.703125 348.4921875 C138.67194487 352.20516283 133.70065828 353.79539923 126.703125 354.4921875 C126.71883545 355.19077881 126.7345459 355.88937012 126.75073242 356.60913086 C127.0219154 370.54244383 127.12459698 383.92646834 123.703125 397.4921875 C123.53151855 398.18570312 123.35991211 398.87921875 123.18310547 399.59375 C117.66536465 421.28996056 107.68849708 441.75560332 92.703125 458.4921875 C91.83816406 459.48863281 90.97320312 460.48507812 90.08203125 461.51171875 C84.16351166 468.2406756 77.87652818 474.08067282 70.703125 479.4921875 C69.90390625 480.09546875 69.1046875 480.69875 68.28125 481.3203125 C49.41770286 495.00563101 28.52782151 503.10604631 5.703125 507.4921875 C4.40435425 507.75237671 4.40435425 507.75237671 3.0793457 508.01782227 C-1.13521006 508.60997512 -5.25695245 508.67374257 -9.5078125 508.6953125 C-10.39360992 508.70101257 -11.27940735 508.70671265 -12.19204712 508.71258545 C-14.0663332 508.72200676 -15.94063563 508.72855799 -17.81494141 508.73242188 C-20.62824088 508.74203835 -23.44078067 508.77305158 -26.25390625 508.8046875 C-65.28056373 509.03336227 -100.9796189 493.06705508 -128.83740234 465.99511719 C-148.51297064 446.20853506 -161.23768003 420.56065147 -167.296875 393.4921875 C-167.52246094 392.52152344 -167.74804688 391.55085938 -167.98046875 390.55078125 C-170.20191258 379.04523424 -169.47407446 367.15327533 -169.296875 355.4921875 C-169.95929199 355.3789917 -170.62170898 355.2657959 -171.30419922 355.14916992 C-178.43824504 353.84371644 -183.36590884 351.6770304 -189.296875 347.4921875 C-189.998125 347.01136719 -190.699375 346.53054688 -191.421875 346.03515625 C-200.33274485 339.16055939 -205.60998939 327.8994077 -207.78125 317.078125 C-209.28355289 304.57366275 -206.57349094 291.97161974 -199.046875 281.8046875 C-191.24233602 272.40941446 -182.23856551 266.34780914 -170.296875 263.4921875 C-169.966875 262.1721875 -169.636875 260.8521875 -169.296875 259.4921875 C-170.10125 259.3065625 -170.905625 259.1209375 -171.734375 258.9296875 C-181.00798441 255.18770476 -187.01975376 248.41634316 -191.296875 239.4921875 C-195.30157591 228.38949946 -195.50120655 216.6803931 -190.578125 205.83203125 C-185.76116072 197.0351971 -178.78700017 189.91040315 -169.24609375 186.35546875 C-164.94180058 183.63606764 -163.98039484 180.18088913 -162.171875 175.5546875 C-147.05772565 139.61725376 -119.1695864 106.11021476 -88.296875 82.4921875 C-86.88258355 81.3961287 -85.46854141 80.29974816 -84.0546875 79.203125 C-66.29559618 65.4921875 -66.29559618 65.4921875 -63.296875 65.4921875 C-63.57402344 64.84894531 -63.85117188 64.20570312 -64.13671875 63.54296875 C-69.0910131 51.18367929 -69.8936194 38.38225385 -64.84765625 25.91015625 C-58.49988787 12.05595834 -49.76001552 3.63308322 -35.4609375 -1.74609375 C-24.28628747 -5.67940919 -10.75057689 -4.87910797 0 0 Z " fill="#646153" transform="translate(277.296875,3.5078125)"/>
<path d="M0 0 C3.63 0 7.26 0 11 0 C11.01401855 1.69189453 11.01401855 1.69189453 11.02832031 3.41796875 C11.06879342 7.68266469 11.13469685 11.94668167 11.20751953 16.2109375 C11.23540216 18.04157661 11.25677568 19.87232879 11.27099609 21.703125 C11.45074572 43.56067963 15.25228635 63.33060547 31.24609375 79.37890625 C44.7204677 92.20345224 60.61237767 99.27572325 79.25390625 99.16796875 C85.88598934 98.87059693 92.43333355 97.94411636 99 97 C99.4125 97.65226562 99.825 98.30453125 100.25 98.9765625 C104.17720057 104.9199598 107.89504591 109.30002782 114 113 C114.61875 113.4125 115.2375 113.825 115.875 114.25 C123.62672075 118.61034292 134.61425143 118.77231581 143.07421875 116.42431641 C153.34565461 112.6596609 159.58278396 106.23643324 165 97 C165.7528125 97.144375 166.505625 97.28875 167.28125 97.4375 C188.0031182 101.05879736 206.00870379 98.18988841 224 87 C227.65551978 84.261944 230.84810834 81.29835503 234 78 C234.63164062 77.38769531 235.26328125 76.77539062 235.9140625 76.14453125 C250.89621387 60.66737488 252.59222154 39.31305959 252.75 19 C252.77824139 17.14580656 252.80817977 15.29163816 252.83984375 13.4375 C252.912724 8.95837988 252.9628837 4.47955332 253 0 C256.63 0 260.26 0 264 0 C264.06976696 14.9785396 264.12314645 29.95705428 264.15543652 44.93572235 C264.17083503 51.89226348 264.19178831 58.84870113 264.22631836 65.80517578 C264.25967748 72.52902127 264.27689537 79.25273752 264.28463173 85.97666931 C264.29013916 88.53126203 264.30089296 91.08584945 264.31719017 93.64039612 C264.42197773 110.75937823 263.83044077 126.55290159 257.9375 142.8125 C257.64077393 143.64015869 257.34404785 144.46781738 257.03833008 145.32055664 C251.58470975 159.96199499 244.13071056 173.11712252 234 185 C233.22140625 185.94101562 232.4428125 186.88203125 231.640625 187.8515625 C225.20784826 195.3144244 217.94968689 201.25481156 210 207 C209.4539209 207.39960938 208.9078418 207.79921875 208.34521484 208.2109375 C194.98792477 217.84014208 179.14756563 224.82282677 163 228 C162.26402588 228.17571533 161.52805176 228.35143066 160.76977539 228.5324707 C152.14393595 230.42721019 143.52429138 230.30265512 134.73950195 230.26074219 C132.0715454 230.2500363 129.40426408 230.26067813 126.73632812 230.2734375 C95.28643815 230.30163547 68.01673091 219.1724687 44 199 C43.23945313 198.37480469 42.47890625 197.74960937 41.6953125 197.10546875 C35.68046627 191.99597134 30.79006295 186.2571302 26 180 C25.10667969 178.84757812 25.10667969 178.84757812 24.1953125 177.671875 C16.38969595 167.09652354 10.54139782 155.28377482 6.125 142.9375 C5.85107422 142.1842041 5.57714844 141.4309082 5.29492188 140.65478516 C-0.41757145 123.85395958 -0.40494644 107.39596881 -0.29296875 89.84375 C-0.28736278 87.2434514 -0.28309742 84.6431496 -0.28010559 82.04284668 C-0.26989246 75.9411212 -0.24634408 69.83958612 -0.21605712 63.73793173 C-0.18228493 56.7800382 -0.16597034 49.82213592 -0.15097082 42.86418056 C-0.11978607 28.57602994 -0.0665507 14.28802684 0 0 Z " fill="#EEEFEF" transform="translate(124,266)"/>
<path d="M0 0 C14.29903997 7.44741665 26.21408542 18.12214947 38 29 C39.00804747 29.90613645 40.01722343 30.81101859 41.02734375 31.71484375 C42.08086174 32.66391536 43.13424896 33.61313215 44.1875 34.5625 C45.12980469 35.40941406 46.07210937 36.25632813 47.04296875 37.12890625 C50.63739835 40.50914265 53.8059602 44.24563311 57 48 C57.56307861 48.65701904 58.12615723 49.31403809 58.70629883 49.9909668 C94 91.41959621 94 91.41959621 94 107 C10.18 107 -73.64 107 -160 107 C-151.46352194 88.97854632 -142.36948498 73.29247752 -130 58 C-129.20722656 57.00226563 -128.41445312 56.00453125 -127.59765625 54.9765625 C-116.31946787 41.04676244 -103.34516969 27.7688116 -89 17 C-87.66386747 15.98202677 -86.32794723 14.96377486 -84.9921875 13.9453125 C-78.13689817 8.74691885 -78.13689817 8.74691885 -74.79833984 6.31396484 C-73.12635403 5.09232112 -71.47808858 3.83839314 -69.83203125 2.58203125 C-67 1 -67 1 -64.3828125 1.07421875 C-61.86767984 2.05140964 -60.02987285 3.194297 -57.875 4.8125 C-46.87689804 12.25819708 -35.06079098 13.94074993 -22 12 C-13.58401601 9.78645245 -6.48916219 5.74499221 0 0 Z " fill="#EC5D50" transform="translate(289,81)"/>
<path d="M0 0 C69.96 0 139.92 0 212 0 C212 52.50421033 212 52.50421033 195.578125 69.58984375 C185.07476878 79.4088904 172.2506471 84.39568089 157.9375 84.25 C157.17373047 84.25773437 156.40996094 84.26546875 155.62304688 84.2734375 C150.71483815 84.25664294 146.65585264 83.55813395 142 82 C141.88785156 80.89205078 141.88785156 80.89205078 141.7734375 79.76171875 C140.35612009 68.82614224 136.63212393 60.31258983 127.875 53.36328125 C118.47283691 46.52712517 108.2621515 45.87011272 97 47 C93.57158436 47.83457974 90.94139686 49.07515952 88 51 C87.31808594 51.4125 86.63617188 51.825 85.93359375 52.25 C78.83825114 56.98920417 72.79770552 64.55078407 71 73 C70.58418104 75.99488659 70.25440879 78.98726437 70 82 C56.20616343 85.91191948 41.90313211 85.58781031 29 79 C16.2461112 71.48104072 7.27417086 60.79173765 2 47 C-1.07526665 31.62366676 0 15.68084465 0 0 Z " fill="#FEE1C4" transform="translate(150,266)"/>
<path d="M0 0 C1.45751028 -0.00761181 1.45751028 -0.00761181 2.94446522 -0.0153774 C4.5494875 -0.01612404 4.5494875 -0.01612404 6.18693447 -0.01688576 C7.88916256 -0.02345914 7.88916256 -0.02345914 9.62577909 -0.03016531 C13.44877308 -0.04357695 17.271744 -0.04973753 21.09475613 -0.0558567 C23.82770982 -0.06322845 26.56065866 -0.07201955 29.29360867 -0.08063698 C37.51049042 -0.10516086 45.72737822 -0.11978909 53.9442853 -0.13269705 C56.26556486 -0.1364093 58.58684382 -0.14038252 60.90812278 -0.14444971 C75.32576384 -0.16968902 89.74340586 -0.1917402 104.16106415 -0.20417786 C107.50077792 -0.20710752 110.84049165 -0.21006918 114.18020535 -0.21308327 C115.42529821 -0.21420234 115.42529821 -0.21420234 116.69554447 -0.21534403 C130.13580465 -0.227992 143.57593236 -0.26120731 157.01613063 -0.3028851 C170.81824624 -0.34533386 184.6202941 -0.36887637 198.4224748 -0.37409842 C206.17049894 -0.37750945 213.91831616 -0.38922793 221.66627598 -0.42220116 C228.26639571 -0.4502435 234.86626613 -0.46118282 241.4664408 -0.4500057 C244.83198467 -0.44482921 248.19658511 -0.45038068 251.5621233 -0.47247124 C255.2176047 -0.49515625 258.87177803 -0.48686868 262.5272665 -0.47098732 C264.1088662 -0.49181045 264.1088662 -0.49181045 265.72241741 -0.51305425 C272.83315038 -0.43711512 278.40663894 1.0378563 284.30154324 5.13701439 C290.43543386 11.67923949 291.66189339 16.94735296 291.58279324 25.83623314 C291.07723996 31.76946261 288.74714223 35.37017117 285.05154324 39.88701439 C277.95737563 45.69133334 271.88156611 46.72157592 262.83938503 46.64494896 C261.7029666 46.65118892 260.56654818 46.65742888 259.39569283 46.66385794 C255.59716995 46.67978106 251.79928935 46.66718556 248.00076199 46.65459251 C245.27366726 46.65781397 242.5465996 46.66699227 239.81951809 46.67583275 C233.1870497 46.693594 226.55476265 46.68978874 219.92228723 46.67818218 C214.5306549 46.66913867 209.13907331 46.66792782 203.74743557 46.67227745 C202.97927885 46.67289038 202.21112213 46.67350331 201.41968793 46.67413482 C199.85906003 46.67541376 198.29843216 46.67671061 196.73780429 46.67802519 C182.11308673 46.68942397 167.48846956 46.67632832 152.86376846 46.65482372 C140.32246864 46.63695336 127.78131694 46.64005766 115.2400198 46.65849876 C100.66667175 46.6799179 86.09341164 46.6883254 71.52005005 46.67604971 C69.96525035 46.67477555 68.41045063 46.67351807 66.8556509 46.67227745 C66.09071385 46.67166035 65.32577679 46.67104325 64.53765982 46.67040744 C59.15419441 46.66695767 53.7707849 46.67277484 48.38732815 46.68219566 C41.82422996 46.69342864 35.26132307 46.69034844 28.69824672 46.66907269 C25.35127846 46.65857933 22.00489202 46.65657315 18.65788555 46.6676693 C15.02617301 46.67859928 11.39535687 46.66489002 7.76370144 46.64494896 C6.18431553 46.65833329 6.18431553 46.65833329 4.57302284 46.67198801 C-3.23511964 46.58882647 -8.40842553 44.82885812 -14.44845676 39.88701439 C-19.8308013 33.30859329 -21.44824974 27.919551 -21.13986301 19.32451439 C-20.17727833 12.37346037 -17.03850283 7.90217026 -11.57345676 3.63701439 C-7.72980573 0.94496308 -4.68041648 0.0129711 0 0 Z " fill="#F0F1F1" transform="translate(120.69845676422119,203.8629856109619)"/>
<path d="M0 0 C2.61276212 1.01371777 4.63319856 2.23433664 6.90625 3.87109375 C9.98135616 6.07455891 12.84614246 7.63616019 16.40625 8.93359375 C15.72175781 9.46339844 15.03726563 9.99320313 14.33203125 10.5390625 C10.94854657 13.30818948 7.77705171 16.25174531 4.59375 19.24609375 C0.82025234 22.78163633 -2.95102607 26.28786068 -6.90625 29.62109375 C-11.57225898 33.66430916 -15.55716131 38.27447921 -19.59375 42.93359375 C-20.4496875 43.90167969 -21.305625 44.86976562 -22.1875 45.8671875 C-38.10327297 64.06199992 -49.56357064 84.04956606 -59.59375 105.93359375 C-71.47375 105.93359375 -83.35375 105.93359375 -95.59375 105.93359375 C-87.49653023 88.0135172 -77.95096648 72.21090364 -65.59375 56.93359375 C-64.80097656 55.93585938 -64.00820312 54.938125 -63.19140625 53.91015625 C-51.91321787 39.98035619 -38.93891969 26.70240535 -24.59375 15.93359375 C-23.25761747 14.91562052 -21.92169723 13.89736861 -20.5859375 12.87890625 C-13.73064817 7.6805126 -13.73064817 7.6805126 -10.39208984 5.24755859 C-8.72010403 4.02591487 -7.07183858 2.77198689 -5.42578125 1.515625 C-2.59375 -0.06640625 -2.59375 -0.06640625 0 0 Z " fill="#DB5A50" transform="translate(224.59375,82.06640625)"/>
<path d="M0 0 C8.10868711 5.41641182 14.34281741 11.80213459 16.98828125 21.328125 C18.09013767 32.14169262 16.68006176 40.90662459 9.98828125 49.578125 C3.52547093 56.47458709 -5.39361836 59.843806 -14.63671875 60.640625 C-24.07187533 60.42780192 -31.25901467 56.11535338 -37.91015625 49.70703125 C-44.48517449 42.26430615 -45.65548401 33.94444986 -45.4140625 24.296875 C-44.60305168 16.29700125 -41.01320121 9.82752324 -35.19921875 4.328125 C-25.1206404 -3.42025573 -11.7530222 -6.28598551 0 0 Z " fill="#F0F1F1" transform="translate(271.01171875,18.671875)"/>
<path d="M0 0 C1.25361328 0.00322266 2.50722656 0.00644531 3.79882812 0.00976562 C5.76432617 0.02233398 5.76432617 0.02233398 7.76953125 0.03515625 C9.10481606 0.04017308 10.44010266 0.04473566 11.77539062 0.04882812 C15.04431598 0.0606293 18.31315116 0.07709328 21.58203125 0.09765625 C21.08832031 1.07347656 20.59460938 2.04929688 20.0859375 3.0546875 C19.43869594 4.3397903 18.79156637 5.6249495 18.14453125 6.91015625 C17.81904297 7.55275391 17.49355469 8.19535156 17.15820312 8.85742188 C13.40503836 16.32505898 12.27480382 22.78349257 14.30078125 31.01953125 C16.29076303 36.82899419 18.93682702 41.18902303 22.58203125 46.09765625 C18.08225241 46.21455698 13.58286838 46.28514462 9.08203125 46.34765625 C7.179375 46.39792969 7.179375 46.39792969 5.23828125 46.44921875 C-3.75974108 46.54294815 -9.09314721 45.6361466 -16.16796875 39.84765625 C-21.55031329 33.26923515 -23.16776173 27.88019286 -22.859375 19.28515625 C-21.89679031 12.33410224 -18.75801481 7.86281213 -13.29296875 3.59765625 C-8.82894201 0.47110056 -5.41654551 -0.02450926 0 0 Z " fill="#DFE0E0" transform="translate(122.41796875,203.90234375)"/>
<path d="M0 0 C5.68086781 3.25275495 9.40675783 8.25300786 11.6875 14.375 C12.96479513 21.65979313 10.64584152 27.30042603 6.6875 33.375 C2.09288688 38.35249755 -4.27946063 39.94170866 -10.8125 40.875 C-16.36918162 40.08118834 -21.0866338 37.78949893 -24.92578125 33.625 C-26.17554328 31.91441126 -27.28192386 30.22507042 -28.3125 28.375 C-28.67601562 27.74078125 -29.03953125 27.1065625 -29.4140625 26.453125 C-31.41945657 21.81456132 -31.09623783 16.65330765 -29.47265625 11.93359375 C-23.85093432 0.74693497 -12.02304096 -5.50865565 0 0 Z " fill="#EA5D51" transform="translate(265.3125,328.625)"/>
<path d="M0 0 C0 19.47 0 38.94 0 59 C-10.44844771 54.52209384 -15.901821 50.24928027 -21 40 C-23.26774945 33.19675164 -23.17477642 23.74192236 -20.4375 17.0625 C-16.59153592 9.92191634 -8.9925035 0 0 0 Z " fill="#FDE0C3" transform="translate(108,284)"/>
<path d="M0 0 C7.69127364 1.28187894 12.27134907 4.24242029 16.875 10.58203125 C22.20172558 19.32759271 23.65771045 27.68010988 21.3515625 37.86328125 C18.33953281 46.13992693 13.47831682 51.99480842 5.625 56 C1.26973684 58 1.26973684 58 0 58 C0 38.86 0 19.72 0 0 Z " fill="#FDE1C4" transform="translate(404,284)"/>
<path d="M0 0 C3.60613676 2.56262869 5.944777 4.73803063 7.75 8.875 C8.48430289 14.43581459 8.47424082 19.18510476 6.25 24.375 C1.67516084 28.94983916 -2.8158742 31.07163218 -9.3125 31.4375 C-14.4670509 31.20752773 -17.69744058 29.57558273 -21.25 25.875 C-24.7047563 21.30580618 -24.93251608 16.43383815 -24.80078125 10.859375 C-23.8770267 5.85406664 -21.13456204 2.99244265 -17.25 -0.125 C-11.68963449 -3.54676339 -5.50518885 -3.18829373 0 0 Z " fill="#656153" transform="translate(319.25,296.125)"/>
<path d="M0 0 C3.16756589 2.14154998 5.10760454 4.83630283 6.796875 8.21484375 C7.46335993 14.09302227 7.1819732 19.33376505 4.1796875 24.51953125 C1.01399234 28.40063775 -2.85334987 29.82873047 -7.69921875 30.625 C-13.03463261 30.94171406 -16.68868847 30.17745952 -20.796875 26.6796875 C-24.67445144 22.64054537 -25.46477231 18.79013404 -25.828125 13.33984375 C-25.69251673 7.60147256 -24.15790359 4.6591389 -20.06640625 0.70703125 C-13.69212624 -4.39773806 -6.89665065 -3.75573417 0 0 Z " fill="#656153" transform="translate(200.203125,296.78515625)"/>
<path d="M0 0 C-1.33294056 2.88169055 -2.86412283 5.17652261 -4.875 7.625 C-11.41101534 16.28641886 -13.67713102 25.85024448 -12.78125 36.6328125 C-11.37561262 45.25585722 -7.44109907 54.00827994 -1 60 C1.69766948 61.03679088 4.12549376 61.51279555 7 62 C7 62.33 7 62.66 7 63 C-2.55197687 63.72090392 -10.14021351 60.97257567 -17.4375 54.75 C-24.58116953 47.8671311 -27.10099236 40.78931328 -27.4375 31 C-27.50587727 22.2391629 -24.86627341 15.47417804 -19.13671875 8.84375 C-13.77590557 3.77300086 -7.47387945 0 0 0 Z " fill="#DDDEDE" transform="translate(253,16)"/>
<path d="M0 0 C3.76302412 1.35980478 6.77695197 3.10534541 10.0625 5.375 C24.62281533 14.81952886 41.22296862 15.35467107 58 13 C58 14.65 58 16.3 58 18 C44.22011805 21.90796197 29.88605354 21.60250763 17 15 C10.21688815 10.90615219 4.82921079 6.2649221 0 0 Z " fill="#E7CEB4" transform="translate(162,330)"/>
<path d="M0 0 C0.99 0.33 1.98 0.66 3 1 C-6.63452187 10.78676037 -18.43922876 17.77957297 -32.47265625 18.265625 C-34.00260411 18.27085112 -35.53262246 18.26557127 -37.0625 18.25 C-37.82626953 18.25773437 -38.59003906 18.26546875 -39.37695312 18.2734375 C-44.28516185 18.25664294 -48.34414736 17.55813395 -53 16 C-53 14.35 -53 12.7 -53 11 C-51.824375 11.165 -50.64875 11.33 -49.4375 11.5 C-32.83186964 13.27265756 -18.53125956 11.51908957 -4 3 C-3.28972656 2.4225 -2.57945312 1.845 -1.84765625 1.25 C-0.93306641 0.63125 -0.93306641 0.63125 0 0 Z " fill="#E8CFB5" transform="translate(345,332)"/>
<path d="M0 0 C0.49628906 0.38671875 0.99257812 0.7734375 1.50390625 1.171875 C7.97408644 6.13193723 14.44396879 9.91590563 22 13 C22 17.29 22 21.58 22 26 C12.92825059 22.59809397 6.89714493 18.03594255 2.12109375 9.48046875 C0.64656769 6.21801563 0.15487852 3.56220591 0 0 Z " fill="#E8CEB5" transform="translate(86,317)"/>
<path d="M0 0 C1.40370337 4.21111011 0.05445454 6.39377275 -1.6484375 10.3671875 C-5.7968381 18.44817596 -11.66060533 22.67702281 -20 26 C-20.33 26 -20.66 26 -21 26 C-21 21.71 -21 17.42 -21 13 C-19.205625 12.34 -17.41125 11.68 -15.5625 11 C-9.22994068 8.39335933 -4.76715314 4.851421 0 0 Z " fill="#EAD0B6" transform="translate(425,316)"/>
</svg>
